<svg aria-hidden="true" style="position: absolute; width: 0; height: 0; overflow: hidden;" version="1.1" xmlns="http://www.w3.org/2000/svg" xmlns:xlink="http://www.w3.org/1999/xlink">
<defs>

<symbol id="icon-hero-btn-right-arrow" viewBox="0 0 32 32">
<path d="M7.381 29.181c0.216 0.112 0.458 0.164 0.701 0.149s0.477-0.096 0.677-0.234l17.333-12c0.177-0.123 0.322-0.287 0.422-0.477s0.152-0.403 0.152-0.619-0.052-0.428-0.152-0.619c-0.1-0.191-0.245-0.355-0.422-0.477l-17.333-12c-0.2-0.139-0.434-0.221-0.677-0.237s-0.486 0.036-0.702 0.149c-0.216 0.113-0.396 0.283-0.522 0.492s-0.192 0.448-0.191 0.691v24c-0 0.243 0.067 0.482 0.192 0.69s0.307 0.378 0.522 0.491zM9.333 6.545l13.657 9.455-13.657 9.455v-18.909z"></path>
</symbol>
</defs>
</svg>
